<mxfile host="app.diagrams.net" modified="2020-10-23T14:40:50.007Z" agent="5.0 (Windows NT 10.0; Win64; x64) AppleWebKit/537.36 (KHTML, like Gecko) Chrome/85.0.4183.121 Safari/537.36" etag="yifbfmGerD-5mtATD_cF" version="13.8.1" type="github" pages="2">
  <diagram name="Page-1" id="74e2e168-ea6b-b213-b513-2b3c1d86103e">
    <mxGraphModel dx="1422" dy="794" grid="1" gridSize="10" guides="1" tooltips="1" connect="1" arrows="1" fold="1" page="1" pageScale="1" pageWidth="1169" pageHeight="827" background="#ffffff" math="0" shadow="0">
      <root>
        <mxCell id="0" />
        <mxCell id="1" parent="0" />
        <mxCell id="Q0IdyLhyOqwnbj0iBxJ7-1" value="" style="whiteSpace=wrap;html=1;aspect=fixed;" vertex="1" parent="1">
          <mxGeometry x="25" y="170" width="555" height="555" as="geometry" />
        </mxCell>
        <mxCell id="Q0IdyLhyOqwnbj0iBxJ7-3" value="short CDSEDoc::Install(CModuleList *mlist, CNetNode *nn_ptr, WORD mode)" style="text;html=1;strokeColor=none;fillColor=none;align=center;verticalAlign=middle;whiteSpace=wrap;rounded=0;" vertex="1" parent="1">
          <mxGeometry x="10" y="180" width="460" height="10" as="geometry" />
        </mxCell>
        <mxCell id="Q0IdyLhyOqwnbj0iBxJ7-4" style="edgeStyle=orthogonalEdgeStyle;rounded=0;orthogonalLoop=1;jettySize=auto;html=1;entryX=0.5;entryY=0;entryDx=0;entryDy=0;" edge="1" parent="1" source="Q0IdyLhyOqwnbj0iBxJ7-5" target="Q0IdyLhyOqwnbj0iBxJ7-11">
          <mxGeometry relative="1" as="geometry" />
        </mxCell>
        <mxCell id="Q0IdyLhyOqwnbj0iBxJ7-5" value="Save Config" style="rounded=1;whiteSpace=wrap;html=1;" vertex="1" parent="1">
          <mxGeometry x="265" y="390" width="110" height="25" as="geometry" />
        </mxCell>
        <mxCell id="Q0IdyLhyOqwnbj0iBxJ7-6" style="edgeStyle=orthogonalEdgeStyle;rounded=0;orthogonalLoop=1;jettySize=auto;html=1;entryX=0.5;entryY=0;entryDx=0;entryDy=0;" edge="1" parent="1" source="Q0IdyLhyOqwnbj0iBxJ7-8" target="Q0IdyLhyOqwnbj0iBxJ7-40">
          <mxGeometry relative="1" as="geometry">
            <mxPoint x="335" y="265" as="targetPoint" />
          </mxGeometry>
        </mxCell>
        <mxCell id="Q0IdyLhyOqwnbj0iBxJ7-7" style="edgeStyle=orthogonalEdgeStyle;rounded=0;orthogonalLoop=1;jettySize=auto;html=1;" edge="1" parent="1" source="Q0IdyLhyOqwnbj0iBxJ7-8" target="Q0IdyLhyOqwnbj0iBxJ7-50">
          <mxGeometry relative="1" as="geometry" />
        </mxCell>
        <mxCell id="Q0IdyLhyOqwnbj0iBxJ7-8" value="Is &lt;br&gt;Websocket&amp;nbsp;(AC15)&lt;br&gt;?" style="rhombus;whiteSpace=wrap;html=1;" vertex="1" parent="1">
          <mxGeometry x="60" y="210" width="140" height="80" as="geometry" />
        </mxCell>
        <mxCell id="Q0IdyLhyOqwnbj0iBxJ7-9" style="edgeStyle=orthogonalEdgeStyle;rounded=0;orthogonalLoop=1;jettySize=auto;html=1;entryX=0;entryY=0.5;entryDx=0;entryDy=0;" edge="1" parent="1" source="Q0IdyLhyOqwnbj0iBxJ7-11" target="Q0IdyLhyOqwnbj0iBxJ7-44">
          <mxGeometry relative="1" as="geometry" />
        </mxCell>
        <mxCell id="Q0IdyLhyOqwnbj0iBxJ7-10" style="edgeStyle=orthogonalEdgeStyle;rounded=0;orthogonalLoop=1;jettySize=auto;html=1;" edge="1" parent="1" source="Q0IdyLhyOqwnbj0iBxJ7-11" target="Q0IdyLhyOqwnbj0iBxJ7-47">
          <mxGeometry relative="1" as="geometry" />
        </mxCell>
        <mxCell id="Q0IdyLhyOqwnbj0iBxJ7-11" value="IsRevised?" style="rhombus;whiteSpace=wrap;html=1;" vertex="1" parent="1">
          <mxGeometry x="280" y="450" width="80" height="80" as="geometry" />
        </mxCell>
        <mxCell id="Q0IdyLhyOqwnbj0iBxJ7-12" value="" style="group" vertex="1" connectable="0" parent="1">
          <mxGeometry x="660" y="169" width="490" height="490" as="geometry" />
        </mxCell>
        <mxCell id="Q0IdyLhyOqwnbj0iBxJ7-13" value="" style="whiteSpace=wrap;html=1;aspect=fixed;" vertex="1" parent="Q0IdyLhyOqwnbj0iBxJ7-12">
          <mxGeometry width="490" height="490" as="geometry" />
        </mxCell>
        <mxCell id="Q0IdyLhyOqwnbj0iBxJ7-14" value="short CDSEDoc::CELiteConnected(short ver_match)" style="text;html=1;strokeColor=none;fillColor=none;align=center;verticalAlign=middle;whiteSpace=wrap;rounded=0;" vertex="1" parent="Q0IdyLhyOqwnbj0iBxJ7-12">
          <mxGeometry x="50" y="10" width="330" height="10" as="geometry" />
        </mxCell>
        <mxCell id="Q0IdyLhyOqwnbj0iBxJ7-15" value="Stop SAM" style="rounded=1;whiteSpace=wrap;html=1;" vertex="1" parent="Q0IdyLhyOqwnbj0iBxJ7-12">
          <mxGeometry x="220" y="40" width="110" height="30" as="geometry" />
        </mxCell>
        <mxCell id="Q0IdyLhyOqwnbj0iBxJ7-16" value="Modbus (AC10)Open?" style="rhombus;whiteSpace=wrap;html=1;" vertex="1" parent="Q0IdyLhyOqwnbj0iBxJ7-12">
          <mxGeometry x="220" y="80" width="115" height="80" as="geometry" />
        </mxCell>
        <mxCell id="Q0IdyLhyOqwnbj0iBxJ7-17" value="EIBisync can open?" style="rhombus;whiteSpace=wrap;html=1;" vertex="1" parent="Q0IdyLhyOqwnbj0iBxJ7-12">
          <mxGeometry x="226.25" y="210" width="102.5" height="96.5" as="geometry" />
        </mxCell>
        <mxCell id="Q0IdyLhyOqwnbj0iBxJ7-18" value="" style="edgeStyle=orthogonalEdgeStyle;rounded=0;orthogonalLoop=1;jettySize=auto;html=1;" edge="1" parent="Q0IdyLhyOqwnbj0iBxJ7-12" source="Q0IdyLhyOqwnbj0iBxJ7-16" target="Q0IdyLhyOqwnbj0iBxJ7-17">
          <mxGeometry relative="1" as="geometry" />
        </mxCell>
        <mxCell id="Q0IdyLhyOqwnbj0iBxJ7-19" value="Restart SAM" style="rounded=1;whiteSpace=wrap;html=1;" vertex="1" parent="Q0IdyLhyOqwnbj0iBxJ7-12">
          <mxGeometry x="80" y="150" width="110" height="30" as="geometry" />
        </mxCell>
        <mxCell id="Q0IdyLhyOqwnbj0iBxJ7-20" value="Return error" style="rounded=1;whiteSpace=wrap;html=1;" vertex="1" parent="Q0IdyLhyOqwnbj0iBxJ7-12">
          <mxGeometry x="76.25" y="300" width="110" height="30" as="geometry" />
        </mxCell>
        <mxCell id="Q0IdyLhyOqwnbj0iBxJ7-21" value="" style="edgeStyle=orthogonalEdgeStyle;rounded=0;orthogonalLoop=1;jettySize=auto;html=1;entryX=0.5;entryY=0;entryDx=0;entryDy=0;" edge="1" parent="Q0IdyLhyOqwnbj0iBxJ7-12" source="Q0IdyLhyOqwnbj0iBxJ7-22" target="Q0IdyLhyOqwnbj0iBxJ7-19">
          <mxGeometry relative="1" as="geometry" />
        </mxCell>
        <mxCell id="Q0IdyLhyOqwnbj0iBxJ7-22" value="result = AC10?" style="rounded=1;whiteSpace=wrap;html=1;" vertex="1" parent="Q0IdyLhyOqwnbj0iBxJ7-12">
          <mxGeometry x="80" y="105" width="110" height="30" as="geometry" />
        </mxCell>
        <mxCell id="Q0IdyLhyOqwnbj0iBxJ7-23" value="" style="edgeStyle=orthogonalEdgeStyle;rounded=0;orthogonalLoop=1;jettySize=auto;html=1;" edge="1" parent="Q0IdyLhyOqwnbj0iBxJ7-12" source="Q0IdyLhyOqwnbj0iBxJ7-16" target="Q0IdyLhyOqwnbj0iBxJ7-22">
          <mxGeometry relative="1" as="geometry" />
        </mxCell>
        <mxCell id="Q0IdyLhyOqwnbj0iBxJ7-24" value="Return result" style="rounded=1;whiteSpace=wrap;html=1;" vertex="1" parent="Q0IdyLhyOqwnbj0iBxJ7-12">
          <mxGeometry x="80" y="193.5" width="110" height="30" as="geometry" />
        </mxCell>
        <mxCell id="Q0IdyLhyOqwnbj0iBxJ7-25" value="" style="edgeStyle=orthogonalEdgeStyle;rounded=0;orthogonalLoop=1;jettySize=auto;html=1;entryX=0.5;entryY=0;entryDx=0;entryDy=0;" edge="1" parent="Q0IdyLhyOqwnbj0iBxJ7-12" source="Q0IdyLhyOqwnbj0iBxJ7-19" target="Q0IdyLhyOqwnbj0iBxJ7-24">
          <mxGeometry relative="1" as="geometry" />
        </mxCell>
        <mxCell id="Q0IdyLhyOqwnbj0iBxJ7-26" value="y" style="text;html=1;strokeColor=none;fillColor=none;align=center;verticalAlign=middle;whiteSpace=wrap;rounded=0;" vertex="1" parent="Q0IdyLhyOqwnbj0iBxJ7-12">
          <mxGeometry x="186.25" y="100" width="40" height="20" as="geometry" />
        </mxCell>
        <mxCell id="Q0IdyLhyOqwnbj0iBxJ7-27" value="n" style="text;html=1;strokeColor=none;fillColor=none;align=center;verticalAlign=middle;whiteSpace=wrap;rounded=0;" vertex="1" parent="Q0IdyLhyOqwnbj0iBxJ7-12">
          <mxGeometry x="250" y="160" width="40" height="20" as="geometry" />
        </mxCell>
        <mxCell id="Q0IdyLhyOqwnbj0iBxJ7-28" value="" style="edgeStyle=orthogonalEdgeStyle;rounded=0;orthogonalLoop=1;jettySize=auto;html=1;" edge="1" parent="Q0IdyLhyOqwnbj0iBxJ7-12" source="Q0IdyLhyOqwnbj0iBxJ7-29" target="Q0IdyLhyOqwnbj0iBxJ7-20">
          <mxGeometry relative="1" as="geometry" />
        </mxCell>
        <mxCell id="Q0IdyLhyOqwnbj0iBxJ7-29" value="Restart SAM" style="rounded=1;whiteSpace=wrap;html=1;" vertex="1" parent="Q0IdyLhyOqwnbj0iBxJ7-12">
          <mxGeometry x="76.25" y="243.25" width="110" height="30" as="geometry" />
        </mxCell>
        <mxCell id="Q0IdyLhyOqwnbj0iBxJ7-30" value="" style="edgeStyle=orthogonalEdgeStyle;rounded=0;orthogonalLoop=1;jettySize=auto;html=1;" edge="1" parent="Q0IdyLhyOqwnbj0iBxJ7-12" source="Q0IdyLhyOqwnbj0iBxJ7-17" target="Q0IdyLhyOqwnbj0iBxJ7-29">
          <mxGeometry relative="1" as="geometry" />
        </mxCell>
        <mxCell id="Q0IdyLhyOqwnbj0iBxJ7-31" value="n" style="text;html=1;strokeColor=none;fillColor=none;align=center;verticalAlign=middle;whiteSpace=wrap;rounded=0;" vertex="1" parent="Q0IdyLhyOqwnbj0iBxJ7-12">
          <mxGeometry x="190" y="235" width="40" height="20" as="geometry" />
        </mxCell>
        <mxCell id="Q0IdyLhyOqwnbj0iBxJ7-32" value="Restart SAM" style="rounded=1;whiteSpace=wrap;html=1;" vertex="1" parent="Q0IdyLhyOqwnbj0iBxJ7-12">
          <mxGeometry x="222.5" y="390" width="110" height="30" as="geometry" />
        </mxCell>
        <mxCell id="Q0IdyLhyOqwnbj0iBxJ7-33" style="edgeStyle=orthogonalEdgeStyle;rounded=0;orthogonalLoop=1;jettySize=auto;html=1;" edge="1" parent="Q0IdyLhyOqwnbj0iBxJ7-12" source="Q0IdyLhyOqwnbj0iBxJ7-34" target="Q0IdyLhyOqwnbj0iBxJ7-32">
          <mxGeometry relative="1" as="geometry" />
        </mxCell>
        <mxCell id="Q0IdyLhyOqwnbj0iBxJ7-34" value="&lt;span&gt;result =Version check&amp;nbsp;&lt;/span&gt;&lt;br&gt;&lt;span&gt;ok?&lt;/span&gt;" style="rounded=1;whiteSpace=wrap;html=1;" vertex="1" parent="Q0IdyLhyOqwnbj0iBxJ7-12">
          <mxGeometry x="209.5" y="330" width="136" height="40" as="geometry" />
        </mxCell>
        <mxCell id="Q0IdyLhyOqwnbj0iBxJ7-35" style="edgeStyle=orthogonalEdgeStyle;rounded=0;orthogonalLoop=1;jettySize=auto;html=1;" edge="1" parent="Q0IdyLhyOqwnbj0iBxJ7-12" source="Q0IdyLhyOqwnbj0iBxJ7-17" target="Q0IdyLhyOqwnbj0iBxJ7-34">
          <mxGeometry relative="1" as="geometry" />
        </mxCell>
        <mxCell id="Q0IdyLhyOqwnbj0iBxJ7-36" value="Return result" style="rounded=1;whiteSpace=wrap;html=1;" vertex="1" parent="Q0IdyLhyOqwnbj0iBxJ7-12">
          <mxGeometry x="222.5" y="440" width="110" height="30" as="geometry" />
        </mxCell>
        <mxCell id="Q0IdyLhyOqwnbj0iBxJ7-37" style="edgeStyle=orthogonalEdgeStyle;rounded=0;orthogonalLoop=1;jettySize=auto;html=1;entryX=0.5;entryY=0;entryDx=0;entryDy=0;" edge="1" parent="Q0IdyLhyOqwnbj0iBxJ7-12" source="Q0IdyLhyOqwnbj0iBxJ7-32" target="Q0IdyLhyOqwnbj0iBxJ7-36">
          <mxGeometry relative="1" as="geometry" />
        </mxCell>
        <mxCell id="Q0IdyLhyOqwnbj0iBxJ7-38" style="edgeStyle=orthogonalEdgeStyle;rounded=0;orthogonalLoop=1;jettySize=auto;html=1;" edge="1" parent="1" source="Q0IdyLhyOqwnbj0iBxJ7-40" target="Q0IdyLhyOqwnbj0iBxJ7-5">
          <mxGeometry relative="1" as="geometry" />
        </mxCell>
        <mxCell id="Q0IdyLhyOqwnbj0iBxJ7-39" style="edgeStyle=orthogonalEdgeStyle;rounded=0;orthogonalLoop=1;jettySize=auto;html=1;entryX=0;entryY=0.5;entryDx=0;entryDy=0;" edge="1" parent="1" source="Q0IdyLhyOqwnbj0iBxJ7-40" target="Q0IdyLhyOqwnbj0iBxJ7-41">
          <mxGeometry relative="1" as="geometry" />
        </mxCell>
        <mxCell id="Q0IdyLhyOqwnbj0iBxJ7-40" value="CELiteConnected()&lt;br&gt;IsConnected?" style="rhombus;whiteSpace=wrap;html=1;" vertex="1" parent="1">
          <mxGeometry x="250" y="270" width="140" height="100" as="geometry" />
        </mxCell>
        <mxCell id="Q0IdyLhyOqwnbj0iBxJ7-41" value="Return error" style="rounded=1;whiteSpace=wrap;html=1;" vertex="1" parent="1">
          <mxGeometry x="430" y="305" width="110" height="30" as="geometry" />
        </mxCell>
        <mxCell id="Q0IdyLhyOqwnbj0iBxJ7-42" value="n" style="text;html=1;strokeColor=none;fillColor=none;align=center;verticalAlign=middle;whiteSpace=wrap;rounded=0;" vertex="1" parent="1">
          <mxGeometry x="390" y="300" width="40" height="20" as="geometry" />
        </mxCell>
        <mxCell id="Q0IdyLhyOqwnbj0iBxJ7-43" value="y" style="text;html=1;strokeColor=none;fillColor=none;align=center;verticalAlign=middle;whiteSpace=wrap;rounded=0;" vertex="1" parent="1">
          <mxGeometry x="320" y="370" width="40" height="20" as="geometry" />
        </mxCell>
        <mxCell id="Q0IdyLhyOqwnbj0iBxJ7-44" value="Return" style="rounded=1;whiteSpace=wrap;html=1;" vertex="1" parent="1">
          <mxGeometry x="430" y="475" width="110" height="30" as="geometry" />
        </mxCell>
        <mxCell id="Q0IdyLhyOqwnbj0iBxJ7-45" value="n" style="text;html=1;strokeColor=none;fillColor=none;align=center;verticalAlign=middle;whiteSpace=wrap;rounded=0;" vertex="1" parent="1">
          <mxGeometry x="375" y="470" width="40" height="20" as="geometry" />
        </mxCell>
        <mxCell id="Q0IdyLhyOqwnbj0iBxJ7-46" style="edgeStyle=orthogonalEdgeStyle;rounded=0;orthogonalLoop=1;jettySize=auto;html=1;entryX=0.5;entryY=0;entryDx=0;entryDy=0;" edge="1" parent="1" source="Q0IdyLhyOqwnbj0iBxJ7-47" target="Q0IdyLhyOqwnbj0iBxJ7-53">
          <mxGeometry relative="1" as="geometry" />
        </mxCell>
        <mxCell id="Q0IdyLhyOqwnbj0iBxJ7-47" value="Install Tags" style="rounded=1;whiteSpace=wrap;html=1;" vertex="1" parent="1">
          <mxGeometry x="265" y="570" width="110" height="25" as="geometry" />
        </mxCell>
        <mxCell id="Q0IdyLhyOqwnbj0iBxJ7-48" value="y" style="text;html=1;strokeColor=none;fillColor=none;align=center;verticalAlign=middle;whiteSpace=wrap;rounded=0;" vertex="1" parent="1">
          <mxGeometry x="320" y="540" width="40" height="20" as="geometry" />
        </mxCell>
        <mxCell id="Q0IdyLhyOqwnbj0iBxJ7-49" style="edgeStyle=orthogonalEdgeStyle;rounded=0;orthogonalLoop=1;jettySize=auto;html=1;" edge="1" parent="1" source="Q0IdyLhyOqwnbj0iBxJ7-50" target="Q0IdyLhyOqwnbj0iBxJ7-56">
          <mxGeometry relative="1" as="geometry" />
        </mxCell>
        <mxCell id="Q0IdyLhyOqwnbj0iBxJ7-50" value="Is CELite" style="rhombus;whiteSpace=wrap;html=1;" vertex="1" parent="1">
          <mxGeometry x="60" y="407.5" width="140" height="80" as="geometry" />
        </mxCell>
        <mxCell id="Q0IdyLhyOqwnbj0iBxJ7-51" value="Return result" style="rounded=1;whiteSpace=wrap;html=1;" vertex="1" parent="1">
          <mxGeometry x="420" y="656.5" width="110" height="30" as="geometry" />
        </mxCell>
        <mxCell id="Q0IdyLhyOqwnbj0iBxJ7-52" style="edgeStyle=orthogonalEdgeStyle;rounded=0;orthogonalLoop=1;jettySize=auto;html=1;entryX=0.5;entryY=0;entryDx=0;entryDy=0;" edge="1" parent="1" source="Q0IdyLhyOqwnbj0iBxJ7-53" target="Q0IdyLhyOqwnbj0iBxJ7-55">
          <mxGeometry relative="1" as="geometry" />
        </mxCell>
        <mxCell id="Q0IdyLhyOqwnbj0iBxJ7-53" value="WriteFile" style="rounded=1;whiteSpace=wrap;html=1;" vertex="1" parent="1">
          <mxGeometry x="265" y="620" width="110" height="25" as="geometry" />
        </mxCell>
        <mxCell id="Q0IdyLhyOqwnbj0iBxJ7-54" style="edgeStyle=orthogonalEdgeStyle;rounded=0;orthogonalLoop=1;jettySize=auto;html=1;entryX=0;entryY=0.5;entryDx=0;entryDy=0;" edge="1" parent="1" source="Q0IdyLhyOqwnbj0iBxJ7-55" target="Q0IdyLhyOqwnbj0iBxJ7-51">
          <mxGeometry relative="1" as="geometry" />
        </mxCell>
        <mxCell id="Q0IdyLhyOqwnbj0iBxJ7-55" value="OnModuleGetInfo" style="rounded=1;whiteSpace=wrap;html=1;" vertex="1" parent="1">
          <mxGeometry x="265" y="659" width="110" height="25" as="geometry" />
        </mxCell>
        <mxCell id="Q0IdyLhyOqwnbj0iBxJ7-56" value="Is AC10" style="rhombus;whiteSpace=wrap;html=1;" vertex="1" parent="1">
          <mxGeometry x="60" y="550" width="140" height="80" as="geometry" />
        </mxCell>
        <mxCell id="Q0IdyLhyOqwnbj0iBxJ7-57" value="&lt;h1&gt;Install Command&lt;/h1&gt;&lt;p&gt;Activated via Command Menu when there is an active config&lt;/p&gt;" style="text;html=1;strokeColor=none;fillColor=none;spacing=5;spacingTop=-20;whiteSpace=wrap;overflow=hidden;rounded=0;" vertex="1" parent="1">
          <mxGeometry x="20" y="20" width="410" height="80" as="geometry" />
        </mxCell>
      </root>
    </mxGraphModel>
  </diagram>
  <diagram id="o9vX4IzdEcf70_xDJs0j" name="Page-2">
    <mxGraphModel dx="1422" dy="794" grid="1" gridSize="10" guides="1" tooltips="1" connect="1" arrows="1" fold="1" page="1" pageScale="1" pageWidth="1169" pageHeight="827" math="0" shadow="0">
      <root>
        <mxCell id="qh9JoIdlJiFwUiUyc0Qv-0" />
        <mxCell id="qh9JoIdlJiFwUiUyc0Qv-1" parent="qh9JoIdlJiFwUiUyc0Qv-0" />
      </root>
    </mxGraphModel>
  </diagram>
</mxfile>
